<?xml version="1.0" encoding="utf-8"?>
<!-- Generator: Adobe Illustrator 26.5.0, SVG Export Plug-In . SVG Version: 6.00 Build 0)  -->
<svg version="1.1" id="Calque_1" xmlns="http://www.w3.org/2000/svg" xmlns:xlink="http://www.w3.org/1999/xlink" x="0px" y="0px"
	 viewBox="0 0 272.1 134.7" style="enable-background:new 0 0 272.1 134.7;" xml:space="preserve">
<style type="text/css">
	.st0{fill-rule:evenodd;clip-rule:evenodd;fill:#FF2C34;}
	.st1{fill-rule:evenodd;clip-rule:evenodd;fill:#FFFFFF;}
	.st2{fill:#FFFFFF;}
	.st3{font-family:'MyriadPro-Semibold';}
	.st4{font-size:14.8854px;}
</style>
<path class="st0" d="M17.6,57.3c0,3,1.6,5.9,4.3,7.4c21.4,12.4,43,24.7,64.8,36.8c0.4,0.2,0.8,0.2,1.1,0c0.3-0.2,0.6-0.6,0.6-1
	c0-10.2,0-58.4,0-74c0-3-1.6-5.8-4.2-7.3c-6.8-4-20.1-11.7-26.9-15.7c-2.6-1.5-5.9-1.6-8.6,0c-6.8,4-20.1,11.7-26.9,15.6
	c-2.6,1.5-4.2,4.3-4.2,7.2C17.6,34.1,17.6,49.4,17.6,57.3L17.6,57.3z M31,24.4c-2.6,1.5-4.2,4.3-4.2,7.3c0,5.6,0.1,14.7,0.1,20.3
	c0,3,1.6,5.8,4.3,7.4c4.8,2.8,12.7,7.3,17.5,10.1c2.6,1.5,5.9,1.5,8.5,0C62,66.6,69.9,62,74.7,59.2c2.6-1.5,4.2-4.3,4.2-7.3
	c0-5.5,0-14.4,0-20c0-3-1.6-5.8-4.2-7.3c-4.8-2.8-12.7-7.4-17.5-10.3c-2.6-1.6-5.9-1.6-8.5-0.1C43.8,17.1,35.9,21.6,31,24.4L31,24.4
	z"/>
<path class="st1" d="M159.5,89.1c0-0.3-0.1-0.6-0.3-0.8c-0.2-0.2-0.5-0.3-0.8-0.3c-0.7,0-1.7,0-2.4,0c-0.3,0-0.6,0.1-0.8,0.3
	c-0.2,0.2-0.3,0.5-0.3,0.8c0,2.3,0,7.4,0,9.7c0,0.3-0.1,0.6-0.3,0.8c-0.2,0.2-0.5,0.3-0.8,0.3c-1.6,0-4.6,0-6.2,0
	c-0.6,0-1.1-0.5-1.1-1.1c0-5.5,0-29.4,0-34.9c0-0.6,0.5-1.1,1.1-1.1c4.3,0,19.5,0,23.8,0c0.3,0,0.6,0.1,0.8,0.3s0.3,0.5,0.3,0.8
	c0,4.2,0,18.7,0,22.9c0,0.3-0.1,0.6-0.3,0.8c-0.2,0.2-0.5,0.3-0.8,0.3c-0.7,0-1.5,0-2.2,0c-0.3,0-0.6,0.1-0.8,0.3
	c-0.2,0.2-0.3,0.5-0.3,0.8c0,2.3,0,7.5,0,9.8c0,0.6-0.5,1.1-1.1,1.1c-1.6,0-4.6,0-6.2,0c-0.6,0-1.1-0.5-1.1-1.1
	C159.5,96.6,159.5,91.4,159.5,89.1L159.5,89.1z M176.6,98.9c0,0.3,0.1,0.6,0.3,0.8c0.2,0.2,0.5,0.3,0.8,0.3c1.6,0,4.6,0,6.2,0
	c0.3,0,0.6-0.1,0.8-0.3c0.2-0.2,0.3-0.5,0.3-0.8c0-5.6,0-29.8,0-35.4c0-0.3-0.1-0.6-0.3-0.8s-0.5-0.3-0.8-0.3c-1.6,0-4.6,0-6.2,0
	c-0.3,0-0.6,0.1-0.8,0.3s-0.3,0.5-0.3,0.8C176.6,69.1,176.6,93.4,176.6,98.9L176.6,98.9z M101,87.8c-0.6,0-1.1,0.5-1.1,1.1
	c0,2.3,0,7.5,0,9.8c0,0.3-0.1,0.6-0.3,0.8c-0.2,0.2-0.5,0.3-0.8,0.3c-1.6,0-4.6,0-6.2,0c-0.6,0-1.1-0.5-1.1-1.1c0-5.5,0-29.5,0-35
	c0-0.6,0.5-1.1,1.1-1.1c4.3,0,19.5,0,23.8,0c0.3,0,0.6,0.1,0.8,0.3c0.2,0.2,0.3,0.5,0.3,0.8c0,5.5,0,29.6,0,35.1
	c0,0.3-0.1,0.6-0.3,0.8c-0.2,0.2-0.5,0.3-0.8,0.3c-1.6,0-4.6,0-6.2,0c-0.6,0-1.1-0.5-1.1-1.1c0-2.3,0-7.6,0-9.9
	c0-0.6-0.5-1.1-1.1-1.1C106.1,87.8,102.7,87.8,101,87.8L101,87.8z M224.3,87.7c-0.7,0-1.2,0.5-1.2,1.2c0,2.3,0,7.5,0,9.8
	c0,0.7-0.5,1.2-1.2,1.2c-1.6,0-4.4,0-6,0c-0.7,0-1.2-0.5-1.2-1.2c0-5.6,0-29.5,0-35.1c0-0.7,0.5-1.2,1.2-1.2c4.3,0,19.1,0,23.4,0
	c0.3,0,0.6,0.1,0.8,0.4c0.2,0.2,0.4,0.5,0.4,0.8c0,5.6,0,29.4,0,35.1c0,0.3-0.1,0.6-0.4,0.8s-0.5,0.4-0.8,0.4c-1.6,0-4.4,0-6.1,0
	c-0.3,0-0.6-0.1-0.8-0.4c-0.2-0.2-0.4-0.5-0.4-0.8c0-2.3,0-7.5,0-9.8c0-0.7-0.5-1.2-1.2-1.2C229.1,87.7,226,87.7,224.3,87.7
	L224.3,87.7z M130.6,88.2c-0.6,0-1.1,0.5-1.1,1.1c0,2.2,0,7.2,0,9.4c0,0.3-0.1,0.6-0.3,0.8c-0.2,0.2-0.5,0.3-0.8,0.3
	c-1.6,0-4.6,0-6.2,0c-0.3,0-0.6-0.1-0.8-0.3c-0.2-0.2-0.3-0.5-0.3-0.8c0-5.5,0.1-29.6,0.1-35.2c0-0.3,0.1-0.6,0.3-0.8
	c0.2-0.2,0.5-0.3,0.8-0.3c3.7,0.1,15.6,0.2,19.3,0.3c0.3,0,0.6,0.1,0.8,0.3s0.3,0.5,0.3,0.8c0,1.6-0.1,4.6-0.1,6.2
	c0,0.6-0.5,1.1-1.1,1.1c-2.5,0-8.3-0.1-10.8-0.1c-0.3,0-0.6,0.1-0.8,0.3c-0.2,0.2-0.3,0.5-0.3,0.8c0,1.7,0,4.9,0,6.6
	c0,0.3,0.1,0.6,0.3,0.8c0.2,0.2,0.5,0.3,0.8,0.3c2.2,0,7,0,9.2,0c0.3,0,0.6,0.1,0.8,0.3c0.2,0.2,0.3,0.5,0.3,0.8c0,1.6,0,4.6,0,6.2
	c0,0.3-0.1,0.6-0.3,0.8c-0.2,0.2-0.5,0.3-0.8,0.3C137.6,88.2,132.8,88.2,130.6,88.2L130.6,88.2z M197.5,90.3c0,0.3,0.1,0.6,0.3,0.8
	c0.2,0.2,0.5,0.3,0.8,0.3c2.5,0,8.3,0,10.8,0c0.6,0,1.1,0.5,1.1,1.1c0,1.6,0,4.6,0,6.2c0,0.3-0.1,0.6-0.3,0.8
	c-0.2,0.2-0.5,0.3-0.8,0.3c-3.7,0-15.5,0-19.2,0c-0.3,0-0.6-0.1-0.8-0.3c-0.2-0.2-0.3-0.5-0.3-0.8c0-5.5,0-29.5,0-35
	c0-0.3,0.1-0.6,0.3-0.8s0.5-0.3,0.8-0.3c3.7,0,15.5,0,19.2,0c0.3,0,0.6,0.1,0.8,0.3s0.3,0.5,0.3,0.8c0,1.6,0,4.6,0,6.2
	c0,0.6-0.5,1.1-1.1,1.1c-2.5,0-8.3,0-10.7,0c-0.3,0-0.6,0.1-0.8,0.3c-0.2,0.2-0.3,0.5-0.3,0.8C197.5,75.7,197.5,86.7,197.5,90.3
	L197.5,90.3z M155.9,71.3c-0.6,0-1.1,0.5-1.1,1.1c0,1.6,0,4.4,0,6c0,0.6,0.5,1.1,1.1,1.1c1.8,0,5.1,0,6.9,0c0.6,0,1.1-0.5,1.1-1.1
	c0-1.6,0-4.4,0-6c0-0.6-0.5-1.1-1.1-1.1C161,71.3,157.7,71.3,155.9,71.3L155.9,71.3z M107.9,79.3c0.6,0,1.1-0.5,1.1-1.1
	c0-1.6,0-4.4,0-6c0-0.6-0.5-1.1-1.1-1.1c-1.8,0-5.1,0-6.9,0c-0.6,0-1.1,0.5-1.1,1.1c0,1.6,0,4.4,0,6c0,0.6,0.5,1.1,1.1,1.1
	C102.7,79.3,106.1,79.3,107.9,79.3L107.9,79.3z M230.8,79.3c0.3,0,0.6-0.1,0.8-0.4c0.2-0.2,0.4-0.5,0.4-0.8c0-1.6,0-4.4,0-6
	c0-0.3-0.1-0.6-0.4-0.8c-0.2-0.2-0.5-0.4-0.8-0.4c-1.7,0-4.8,0-6.5,0c-0.3,0-0.6,0.1-0.8,0.4c-0.2,0.2-0.4,0.5-0.4,0.8
	c0,1.6,0,4.4,0,6c0,0.3,0.1,0.6,0.4,0.8c0.2,0.2,0.5,0.4,0.8,0.4C226,79.3,229.1,79.3,230.8,79.3L230.8,79.3z M143.6,30
	c-0.7,0-1.2,0.5-1.2,1.2c0,4.6,0,21.4,0,26c0,0.7-0.5,1.2-1.2,1.2c-1.6,0-4.4,0-6,0c-0.7,0-1.2-0.5-1.2-1.2c0-5.6,0-28.9,0-34.5
	c0-0.7,0.5-1.2,1.2-1.2c4.3,0,18.6,0,22.9,0c0.7,0,1.2,0.5,1.2,1.2c0,5.5,0,28.6,0,34.2c0,0.7-0.5,1.2-1.2,1.2c-1.6,0-4.4,0-6.1,0
	c-0.3,0-0.6-0.1-0.8-0.4c-0.2-0.2-0.4-0.5-0.4-0.8c0-4.6,0-21.1,0-25.7c0-0.3-0.1-0.6-0.4-0.8c-0.2-0.2-0.5-0.4-0.8-0.4
	C148,30,145.2,30,143.6,30L143.6,30z M122.5,21.1c-0.7,0-1.2,0.5-1.2,1.2c0,5.6,0,29.1,0,34.7c0,0.7,0.5,1.2,1.2,1.2
	c1.6,0,4.4,0,6.1,0c0.7,0,1.2-0.5,1.2-1.2c0-5.6,0-29.1,0-34.7c0-0.7-0.5-1.2-1.2-1.2C127,21.1,124.1,21.1,122.5,21.1L122.5,21.1z
	 M101.1,47c-0.3,0-0.6,0.1-0.8,0.3c-0.2,0.2-0.3,0.5-0.3,0.8c0,2.2,0,6.8,0,9c0,0.3-0.1,0.6-0.3,0.8c-0.2,0.2-0.5,0.3-0.8,0.3
	c-1.6,0-4.6,0-6.2,0c-0.6,0-1.1-0.5-1.1-1.1c0-5.5,0-29.3,0-34.8c0-0.6,0.5-1.1,1.1-1.1c4.2,0,19.2,0,23.4,0c0.6,0,1.1,0.5,1.1,1.1
	c0,4.3,0.1,19.3,0.2,23.6c0,0.3-0.1,0.6-0.3,0.8c-0.2,0.2-0.5,0.3-0.8,0.3C113,47,104.2,47,101.1,47L101.1,47z M101.1,29.6
	c-0.3,0-0.6,0.1-0.8,0.3c-0.2,0.2-0.3,0.5-0.3,0.8c0,1.7,0,5,0,6.7c0,0.3,0.1,0.6,0.3,0.8c0.2,0.2,0.5,0.3,0.8,0.3
	c1.7,0,4.9,0,6.6,0c0.3,0,0.6-0.1,0.8-0.3c0.2-0.2,0.3-0.5,0.3-0.8c0-1.7,0-5,0-6.7c0-0.6-0.5-1.1-1.1-1.1
	C105.9,29.6,102.8,29.6,101.1,29.6L101.1,29.6z"/>
<text transform="matrix(1 0 0 1 91.5 123.9082)" class="st2 st3 st4">Stories That shape Africa</text>
</svg>
