<svg id="Groupe_13" data-name="Groupe 13" xmlns="http://www.w3.org/2000/svg" width="76.547" height="84.667" viewBox="0 0 76.547 84.667">
  <g id="Groupe_11" data-name="Groupe 11">
    <path id="Tracé_13" data-name="Tracé 13" d="M638.028,28.5l-.44,31.924a10.393,10.393,0,0,1-5.327,8.936L604.4,84.935a10.409,10.409,0,0,1-10.415-.136l-27.418-16.35a10.373,10.373,0,0,1-5.082-9.083l.435-31.924a10.449,10.449,0,0,1,5.327-8.947L595.119,2.921a10.4,10.4,0,0,1,10.4.141L632.951,19.4A10.421,10.421,0,0,1,638.028,28.5Z" transform="translate(-561.482 -1.597)" fill="#ff4741" fill-rule="evenodd"/>
  </g>
  <g id="_91uEfO.tif" data-name="91uEfO.tif" transform="translate(15.451 26.55)">
    <g id="Groupe_12" data-name="Groupe 12">
      <path id="Tracé_14" data-name="Tracé 14" d="M608.845,75.558c-5.061-.224-10.123-.44-15.183-.683a15.662,15.662,0,0,1-2.381-.317,5.629,5.629,0,0,1-4.791-4.865c-.349-2.065-.538-4.163-.686-6.255a66.677,66.677,0,0,1,.1-10.143,37.835,37.835,0,0,1,.632-4.711A5.82,5.82,0,0,1,591.86,43.8a102.094,102.094,0,0,1,12.675-.663c5.114-.006,10.231.077,15.344.21a53.294,53.294,0,0,1,6.03.545,5.771,5.771,0,0,1,5.209,5.124,55.4,55.4,0,0,1,.709,11.7c-.09,2.736-.356,5.468-.619,8.2a6.133,6.133,0,0,1-2.786,4.87,7.821,7.821,0,0,1-3.522,1.016c-4.776.5-9.571.55-14.367.61-.561.007-1.122,0-1.683,0Zm-4.665-9.395,12.009-6.917L604.18,52.331Z" transform="translate(-585.656 -43.136)" fill="#f0f0f0"/>
    </g>
  </g>
</svg>
