<svg id="Groupe_7" data-name="Groupe 7" xmlns="http://www.w3.org/2000/svg" width="76.548" height="84.667" viewBox="0 0 76.548 84.667">
  <g id="Groupe_6" data-name="Groupe 6" transform="translate(0 0)">
    <path id="Tracé_7" data-name="Tracé 7" d="M360.081,26.9l-.44,31.924a10.392,10.392,0,0,1-5.327,8.936L326.45,83.338a10.409,10.409,0,0,1-10.415-.136l-27.417-16.35a10.372,10.372,0,0,1-5.082-9.083l.435-31.924A10.45,10.45,0,0,1,289.3,16.9L317.171,1.324a10.4,10.4,0,0,1,10.4.142L355,17.806A10.42,10.42,0,0,1,360.081,26.9Z" transform="translate(-283.534 0)" fill="#ff4741" fill-rule="evenodd"/>
  </g>
  <path id="Tracé_8" data-name="Tracé 8" d="M344.7,35.8v5.98c-2.131.9-4.842-.781-6.34,1.32-1.342,1.883-.529,4.251-.507,6.689h6.5c.166,2.487-.4,4.613-.714,7h-5.89V74.412H330.62V56.859h-5.95v-7h5.814c.339-4.8-1.023-10.086,4.011-13.082C337.681,34.879,341.178,35.35,344.7,35.8Z" transform="translate(-298.378 -12.774)" fill="#fcfbf8"/>
</svg>
