<svg id="Groupe_10" data-name="Groupe 10" xmlns="http://www.w3.org/2000/svg" width="76.548" height="84.667" viewBox="0 0 76.548 84.667">
  <g id="Groupe_8" data-name="Groupe 8" transform="translate(0 0)">
    <path id="Tracé_9" data-name="Tracé 9" d="M502.291,26.9l-.44,31.924a10.392,10.392,0,0,1-5.327,8.936L468.66,83.338a10.409,10.409,0,0,1-10.415-.136l-27.417-16.35a10.373,10.373,0,0,1-5.082-9.083l.435-31.924a10.45,10.45,0,0,1,5.327-8.947L459.381,1.324a10.4,10.4,0,0,1,10.4.142l27.428,16.34A10.42,10.42,0,0,1,502.291,26.9Z" transform="translate(-425.744 0)" fill="#ff4741" fill-rule="evenodd"/>
  </g>
  <g id="Groupe_9" data-name="Groupe 9" transform="translate(17.979 22.696)">
    <path id="Tracé_10" data-name="Tracé 10" d="M473.241,74.423c-3.293,0-6.589.08-9.879-.022a9.439,9.439,0,0,1-9.45-9.723q-.071-9.582,0-19.167c.051-5.706,3.926-9.773,9.629-9.9q9.721-.213,19.45,0c5.417.111,9.379,3.784,9.6,9.275.276,6.685.308,13.4-.022,20.085-.3,6.051-4.306,9.416-10.38,9.453C479.211,74.442,476.226,74.427,473.241,74.423ZM489.23,55.251c0-3.19.062-6.381-.016-9.569-.09-3.663-2.571-6.522-6-6.588-6.678-.128-13.362-.142-20.038.017a6.136,6.136,0,0,0-6.067,6.153q-.141,9.877,0,19.756a6.025,6.025,0,0,0,5.951,6.225c6.677.144,13.361.164,20.036.015a6.218,6.218,0,0,0,6.115-6.438C489.285,61.632,489.231,58.441,489.23,55.251Z" transform="translate(-453.874 -35.51)" fill="#fcfcfc"/>
    <path id="Tracé_11" data-name="Tracé 11" d="M488.383,60.765a10.211,10.211,0,0,1-9.725,9.719,9.767,9.767,0,0,1,.1-19.534A10.2,10.2,0,0,1,488.383,60.765Zm-9.84-6.451a6.405,6.405,0,1,0,6.452,6.326A6.3,6.3,0,0,0,478.543,54.313Z" transform="translate(-459.316 -41.081)" fill="#fcfcfc"/>
    <path id="Tracé_12" data-name="Tracé 12" d="M501.511,48.455c-.233,1.414-.933,2.409-2.385,2.41a2.242,2.242,0,0,1-2.385-2.312,2.2,2.2,0,0,1,2.306-2.381C500.477,46.122,501.208,47.146,501.511,48.455Z" transform="translate(-469.342 -39.357)" fill="#fcfcfc"/>
  </g>
</svg>
