<svg id="Groupe_5" data-name="Groupe 5" xmlns="http://www.w3.org/2000/svg" width="76.547" height="84.667" viewBox="0 0 76.547 84.667">
  <g id="Groupe_3" data-name="Groupe 3" transform="translate(0 0)">
    <path id="Tracé_3" data-name="Tracé 3" d="M217.818,26.9l-.44,31.924a10.4,10.4,0,0,1-5.327,8.936L184.188,83.338a10.409,10.409,0,0,1-10.415-.136l-27.418-16.35a10.373,10.373,0,0,1-5.082-9.083l.435-31.924a10.449,10.449,0,0,1,5.327-8.947L174.909,1.324a10.4,10.4,0,0,1,10.4.142l27.429,16.34A10.421,10.421,0,0,1,217.818,26.9Z" transform="translate(-141.272 0)" fill="#ff4741" fill-rule="evenodd"/>
  </g>
  <g id="Groupe_4" data-name="Groupe 4" transform="translate(16.893 21.226)">
    <path id="Tracé_4" data-name="Tracé 4" d="M198.48,79.627c-2.852-.021-5.377.659-8.19.191V53.812c4.739-1.3,7.332-.7,8.276,2.153a10.5,10.5,0,0,1,8.589-3.188c4.682.4,7.431,2.473,8.267,7.047,1.182,6.467.467,13,.592,19.658h-8.3c0-3.635.026-7.26-.012-10.885-.017-1.58-.162-3.159-.257-4.739-.155-2.565-1.371-4.082-4.081-4.061-2.773.021-4.378,1.381-4.528,4.41-.225,4.551-.135,9.119-.191,13.68C198.636,78.369,198.555,78.852,198.48,79.627Z" transform="translate(-175.853 -40.255)" fill="#fcfcfc"/>
    <path id="Tracé_5" data-name="Tracé 5" d="M169.512,53.879H177c.839,1.232.441,2.553.449,3.791.045,6.634-.061,13.27.068,19.9.042,2.171-.508,3.115-2.8,2.872a51.527,51.527,0,0,0-5.208-.034Z" transform="translate(-168.356 -40.668)" fill="#fcfcfc"/>
    <path id="Tracé_6" data-name="Tracé 6" d="M172.4,42.785a4.891,4.891,0,0,1-4.691-4.737,4.785,4.785,0,0,1,4.9-4.838,4.423,4.423,0,0,1,4.618,4.656A4.927,4.927,0,0,1,172.4,42.785Z" transform="translate(-167.703 -33.21)" fill="#fcfcfc"/>
  </g>
</svg>
