<svg id="Groupe_2" data-name="Groupe 2" xmlns="http://www.w3.org/2000/svg" width="76.548" height="84.667" viewBox="0 0 76.548 84.667">
  <g id="Groupe_1" data-name="Groupe 1" transform="translate(0 0)">
    <path id="Tracé_1" data-name="Tracé 1" d="M76.547,26.9l-.44,31.924a10.392,10.392,0,0,1-5.327,8.936L42.916,83.338A10.409,10.409,0,0,1,32.5,83.2L5.084,66.852A10.375,10.375,0,0,1,0,57.769L.436,25.845A10.45,10.45,0,0,1,5.763,16.9L33.637,1.324a10.4,10.4,0,0,1,10.4.142L71.47,17.806A10.421,10.421,0,0,1,76.547,26.9Z" transform="translate(0 0)" fill="#ff4741" fill-rule="evenodd"/>
  </g>
  <path id="Tracé_2" data-name="Tracé 2" d="M32.93,64.155l2.918-.233c-3.566-1.949-5.879-4.323-6.124-8.143,1.032-.6,1.823.669,2.958.01-2.59-3.132-3.9-6.55-1.671-10.809,4.739,5.077,10.231,8.318,17.133,8.74.585-.734.25-1.612.318-2.42A8.591,8.591,0,0,1,60.356,44.05c3.823,1.6,3.823,1.6,7.872.58-.112,1.645-1.465,2.387-2.248,3.453,1.117.748,2.1-.479,3.2-.125-.114.25-.153.564-.326.682-3.076,2.1-3.145,5.365-3.682,8.621C62.482,73.579,43.81,82.359,29.4,74.19c-.119-.067-.162-.267-.4-.683a17.648,17.648,0,0,0,11.421-3.563C36.855,69.25,34.273,67.67,32.93,64.155Z" transform="translate(-10.467 -15.651)" fill="#fcfcfc"/>
</svg>
